<?xml version="1.0" encoding="UTF-8" standalone="no"?>
<!DOCTYPE svg PUBLIC "-//W3C//DTD SVG 1.1//EN" "http://www.w3.org/Graphics/SVG/1.1/DTD/svg11.dtd">
<svg width="100%" height="100%" viewBox="0 0 2481 1749" version="1.1" xmlns="http://www.w3.org/2000/svg" xmlns:xlink="http://www.w3.org/1999/xlink" xml:space="preserve" xmlns:serif="http://www.serif.com/" style="fill-rule:evenodd;clip-rule:evenodd;stroke-linejoin:round;stroke-miterlimit:2;">
    <g id="זהב-עליון-" serif:id="זהב עליון " transform="matrix(1.191037,0,0,1.191037,8.584933,-304.962017)">
        <path d="M1033.998,602.422C1033.998,602.422 918.927,682.934 782.204,691.795C782.204,691.795 785.337,790.1 790.401,809.089C790.401,809.089 805.407,902.591 831.359,942.468L846.381,942.468C846.381,942.468 813.821,867.323 810.023,805.924C810.023,805.924 801.794,747.057 804.959,707.812C804.959,707.812 939.585,687.76 1033.998,627.108C1033.998,627.108 1137.906,690.519 1262.602,706.977C1262.602,706.977 1262.288,789.689 1257.857,809.944C1257.857,809.944 1252.863,874.501 1221.929,942.444L1236.017,942.444C1236.017,942.444 1271.464,869.652 1277.794,807.62C1277.794,807.62 1285.389,722.801 1285.389,691.785C1285.389,691.785 1150.366,683.833 1033.998,602.422Z" style="fill:url(#_Linear1);"/>
    </g>
    <g id="כחול-עליון" serif:id="כחול עליון" transform="matrix(1.191037,0,0,1.191037,8.584933,-304.962017)">
        <path d="M855.647,942.468L868.611,942.444C868.611,942.444 843.321,893.261 833.473,820.943C833.473,820.943 823.75,747.214 827.963,725.5C827.963,725.5 956.134,717.524 1033.998,664.086C1033.998,664.086 1115.591,721.972 1240.661,725.213C1240.661,725.213 1239.973,792.636 1234.01,825.304C1234.01,825.304 1228.953,878.774 1200.59,942.468L1214.889,942.444C1214.889,942.444 1244.705,871.13 1250.863,804.692C1250.863,804.692 1257.929,742.21 1255.661,711.098C1255.661,711.098 1142.028,701.454 1033.998,629.362C1033.998,629.362 962.055,686.094 812.814,712.345C812.814,712.345 809.592,743.959 817.837,817.997C817.837,817.997 819.035,827.497 825.221,855.545C831.737,885.093 842.996,923.442 855.647,942.468Z" style="fill:rgb(1,31,68);"/>
    </g>
    <g id="כחול-תחתון" serif:id="כחול תחתון" transform="matrix(1.191037,0,0,1.191037,8.5415,-305.456085)">
        <path d="M928.516,1057.841L958.822,1057.841C958.822,1057.841 983.491,1078.544 1034.047,1098.248C1034.047,1098.248 1061.271,1090.604 1110.235,1057.841L1141.41,1057.841C1141.41,1057.841 1085.104,1107.856 1034.034,1133.575C1034.034,1133.575 974.526,1103.779 928.516,1057.841Z" style="fill:rgb(1,31,68);"/>
    </g>
    <g id="חץ-תחתון" serif:id="חץ תחתון" transform="matrix(1.189985,0,0,1.189985,10.104008,-302.908466)">
        <path d="M1219.987,945.577L1364.029,942.444L1221.342,942.444L1219.987,945.577Z"/>
    </g>
    <g id="חץ-תחתון1" serif:id="חץ תחתון" transform="matrix(1.211104,0,0,1.189985,-14.664985,-302.908466)">
        <path d="M1198.189,945.577L1212.464,945.577L1213.762,942.444L1199.57,942.444L1198.189,945.577Z"/>
    </g>
    <g id="חץ-תחתון2" serif:id="חץ תחתון" transform="matrix(-1.191037,0,0,1.191037,2471.645146,-303.823765)">
        <path d="M1219.898,945.511L1364.029,942.444L1221.186,942.444L1219.898,945.511Z"/>
    </g>
    <g id="קו-תחתון" serif:id="קו תחתון" transform="matrix(-1.119184,0,0,1.191037,2386.187385,-303.823765)">
        <path d="M1197.434,945.511L1211.626,945.511L1213.526,942.444L1199.57,942.444L1197.434,945.511Z"/>
    </g>
    <g id="זהב-תחתון" serif:id="זהב תחתון" transform="matrix(1.191037,0,0,1.191037,8.584933,-304.962017)">
        <path d="M1163.518,1057.426C1163.518,1057.426 1125.818,1096.904 1100.154,1114.603C1074.49,1132.303 1040.585,1158.055 1033.998,1158.055C1033.998,1158.055 1016.216,1155.223 971.038,1117.524C971.038,1117.524 918.691,1076.709 902.054,1057.426L723.026,1057.426L883.912,1065.576C883.912,1065.576 930.55,1112.922 952.851,1129.559C952.851,1129.559 1025.409,1181.861 1033.998,1183.808C1033.998,1183.808 1084.425,1155.489 1113.472,1129.825C1113.472,1129.825 1158.243,1095.062 1182.696,1065.576L1342.549,1057.426L1163.518,1057.426Z" style="fill:url(#_Linear2);"/>
    </g>
    <g id="פס-זהב-תחתון" serif:id="פס זהב תחתון" transform="matrix(1.191037,0,0,1.191037,8.584933,-304.962017)">
        <path d="M917.515,1057.426C917.515,1057.426 969.883,1109.629 1033.998,1144.757C1033.998,1144.757 1110.339,1098.312 1149.23,1057.426C1149.23,1057.426 1123.456,1086.656 1103.942,1101.258C1103.942,1101.258 1042.227,1146.99 1033.998,1150.018C1033.998,1150.018 980.622,1116.832 966.817,1104.752C966.817,1104.752 922.042,1066.516 917.515,1057.426Z" style="fill:url(#_Linear3);"/>
    </g>
    <g id="מגן" transform="matrix(1.377367,0,0,1.45793,-195.98884,302.737689)">
        <path d="M975.126,181.384L975.126,357.298L949.113,357.298L949.113,205.443L939.255,205.443L944.731,181.384L975.126,181.384Z" style="fill:rgb(1,31,68);fill-rule:nonzero;"/>
        <path d="M1004.7,181.384L1052.893,181.384L1052.893,336.602L1027.154,336.602L1027.154,271.411L1021.403,271.411C1020.491,271.411 1020.034,271.842 1020.034,272.704L1020.034,336.602L994.294,336.602L994.294,271.411C994.294,264.512 996.713,258.778 1001.551,254.207C1006.388,249.637 1012.55,247.352 1020.034,247.352L1027.154,247.352L1027.154,205.443L999.223,205.443L1004.7,181.384Z" style="fill:rgb(1,31,68);fill-rule:nonzero;"/>
        <path d="M1074.526,336.602L1074.526,205.443L1065.216,205.443L1070.692,181.384L1100.54,181.384L1100.54,191.732L1107.659,181.384L1119.981,181.384C1128.379,181.384 1135.088,183.626 1140.108,188.11C1145.128,192.594 1147.638,198.372 1147.638,205.443L1147.638,336.602L1111.219,336.602L1111.219,312.543L1121.624,312.543L1121.624,206.736C1121.624,205.874 1121.168,205.443 1120.255,205.443L1100.54,205.443L1100.54,336.602L1074.526,336.602Z" style="fill:rgb(1,31,68);fill-rule:nonzero;"/>
    </g>
    <g id="ליווי-וייעוץ-מוניצפלי" serif:id="ליווי וייעוץ מוניצפלי" transform="matrix(1.241158,0,0,1.364143,-49.41858,327.561357)">
        <path d="M732.233,417.913L732.233,402.246L724.923,402.246L724.923,396.65L739.999,396.65L739.999,417.913L732.233,417.913Z" style="fill:rgb(1,31,68);fill-rule:nonzero;"/>
        <path d="M749.013,402.246L749.013,385.395L756.744,385.395L756.744,396.65L778.462,396.65L778.462,402.246L749.013,402.246ZM781.273,401.126L766.443,434.507L758.185,434.507L775.369,396.65L781.273,396.65L781.273,401.126Z" style="fill:rgb(1,31,68);fill-rule:nonzero;"/>
        <path d="M805.327,435.211C803.242,435.211 800.952,435.019 798.457,434.635C795.962,434.251 793.567,433.697 791.271,432.973L792.747,427.761C794.949,428.358 797.133,428.8 799.301,429.088C801.468,429.375 803.348,429.519 804.941,429.519C808.666,429.477 811.518,428.64 813.498,427.009C815.478,425.379 816.468,423.029 816.468,419.959L816.468,402.246L800.97,402.246C800.29,403.439 799.752,404.851 799.353,406.482C798.955,408.113 798.756,409.749 798.756,411.39L798.756,414.012C799.295,414.182 799.968,414.305 800.777,414.38C801.585,414.454 802.586,414.492 803.781,414.492L803.781,420.055C801.884,420.14 800.203,420.124 798.738,420.007C797.274,419.89 795.944,419.661 794.75,419.32C793.555,418.979 792.383,418.52 791.235,417.945L791.13,413.436C791.13,411.305 791.411,409.237 791.973,407.233C792.536,405.23 793.309,403.567 794.293,402.246L789.443,402.246L789.443,396.65L824.199,396.65L824.199,418.744C824.199,422.538 823.379,425.65 821.739,428.081C820.099,430.511 817.862,432.306 815.027,433.468C812.192,434.63 808.959,435.211 805.327,435.211Z" style="fill:rgb(1,31,68);fill-rule:nonzero;"/>
        <path d="M840.346,417.913L840.346,402.246L833.036,402.246L833.036,396.65L848.112,396.65L848.112,417.913L840.346,417.913Z" style="fill:rgb(1,31,68);fill-rule:nonzero;"/>
        <path d="M858.918,434.507L858.918,428.88L880.355,428.88L856.177,396.65L864.857,396.65L877.051,413.692L890.3,431.086L890.3,434.507L858.918,434.507ZM878.562,419.256L873.783,413.596L883.658,396.65L892.338,396.65L878.562,419.256Z" style="fill:rgb(1,31,68);fill-rule:nonzero;"/>
        <path d="M904.479,417.913L904.479,402.246L897.17,402.246L897.17,396.65L912.246,396.65L912.246,417.913L904.479,417.913Z" style="fill:rgb(1,31,68);fill-rule:nonzero;"/>
        <path d="M927.69,435.147C926.425,435.147 925.236,435.077 924.123,434.939C923.01,434.8 921.845,434.614 920.626,434.379L920.767,428.976C922.337,429.232 924.047,429.359 925.898,429.359C927.702,429.359 929.066,428.891 929.992,427.953C930.917,427.015 931.38,425.544 931.38,423.54L931.38,402.246L923.438,402.246L923.438,396.65L939.146,396.65L939.146,424.116C939.146,427.697 938.151,430.431 936.159,432.317C934.168,434.204 931.345,435.147 927.69,435.147Z" style="fill:rgb(1,31,68);fill-rule:nonzero;"/>
        <path d="M953.853,434.507L953.853,402.246L949.354,402.246L949.354,396.65L961.619,396.65L961.619,434.507L953.853,434.507Z" style="fill:rgb(1,31,68);fill-rule:nonzero;"/>
        <path d="M974.393,434.507L977.415,411.198C977.673,409.45 978.205,407.804 979.014,406.258C979.822,404.713 980.777,403.514 981.878,402.661C981.995,402.597 982.112,402.528 982.229,402.453C982.346,402.379 982.44,402.309 982.51,402.246L982.475,402.15C981.468,402.278 980.214,402.523 978.715,402.885C977.216,403.247 975.857,403.631 974.639,404.036L972.917,398.792C974.721,398.217 976.7,397.711 978.856,397.274C981.011,396.837 983.202,396.496 985.427,396.25C987.653,396.005 989.761,395.883 991.753,395.883C997.54,395.883 1001.956,397.268 1005.001,400.039C1008.047,402.81 1009.582,406.882 1009.605,412.253L1009.605,434.507L992.175,434.507L992.175,428.912L1001.874,428.912L1001.874,411.422C1001.874,408.267 1001.112,405.864 999.59,404.212C998.067,402.56 995.876,401.734 993.018,401.734C990.816,401.734 989.012,402.507 987.606,404.052C986.2,405.597 985.322,407.724 984.97,410.431L982.018,434.507L974.393,434.507Z" style="fill:rgb(1,31,68);fill-rule:nonzero;"/>
        <path d="M1054.402,447.808L1054.402,424.276C1054.402,422.698 1053.957,421.323 1053.066,420.151L1035.495,396.65L1044.175,396.65L1056.054,413.532L1059.603,418.137C1060.353,419.117 1060.891,420.151 1061.219,421.238C1061.547,422.325 1061.711,423.572 1061.711,424.979L1061.711,447.808L1054.402,447.808ZM1057.881,419.256L1053.102,413.596L1062.977,396.65L1071.657,396.65L1057.881,419.256Z" style="fill:rgb(1,31,68);fill-rule:nonzero;"/>
        <path d="M1081.584,434.507L1081.584,402.246L1077.085,402.246L1077.085,396.65L1089.35,396.65L1089.35,434.507L1081.584,434.507Z" style="fill:rgb(1,31,68);fill-rule:nonzero;"/>
        <path d="M1113.65,435.339C1111.425,435.339 1109.029,435.131 1106.464,434.715C1103.898,434.299 1101.21,433.612 1098.399,432.653L1100.156,427.441C1102.545,428.294 1104.783,428.922 1106.868,429.328C1108.953,429.733 1110.874,429.946 1112.631,429.967C1116.333,429.967 1119.302,429.066 1121.54,427.265C1123.777,425.464 1124.896,422.837 1124.896,419.384L1124.896,396.65L1132.627,396.65L1132.627,419.064C1132.627,422.602 1131.825,425.581 1130.22,428.001C1128.615,430.42 1126.389,432.248 1123.543,433.484C1120.696,434.72 1117.399,435.339 1113.65,435.339ZM1100.542,396.65L1108.309,396.65L1114.88,424.244C1115.232,425.736 1115.642,427.025 1116.11,428.112C1116.579,429.2 1117.247,430.18 1118.113,431.054L1112.104,430.99C1111.073,430.18 1110.113,429.178 1109.222,427.985C1108.332,426.791 1107.688,425.373 1107.29,423.732L1100.542,396.65Z" style="fill:rgb(1,31,68);fill-rule:nonzero;"/>
        <path d="M1148.774,417.913L1148.774,402.246L1141.465,402.246L1141.465,396.65L1156.541,396.65L1156.541,417.913L1148.774,417.913Z" style="fill:rgb(1,31,68);fill-rule:nonzero;"/>
        <path d="M1172.02,417.913L1172.02,402.246L1164.711,402.246L1164.711,396.65L1179.787,396.65L1179.787,417.913L1172.02,417.913Z" style="fill:rgb(1,31,68);fill-rule:nonzero;"/>
        <path d="M1193.86,434.507L1193.86,402.246L1189.362,402.246L1189.362,396.65L1201.627,396.65L1201.627,434.507L1193.86,434.507Z" style="fill:rgb(1,31,68);fill-rule:nonzero;"/>
        <path d="M1235.951,417.913L1235.951,402.246L1228.642,402.246L1228.642,396.65L1243.718,396.65L1243.718,417.913L1235.951,417.913Z" style="fill:rgb(1,31,68);fill-rule:nonzero;"/>
        <path d="M1257.791,434.507L1257.791,402.246L1253.293,402.246L1253.293,396.65L1265.558,396.65L1265.558,434.507L1257.791,434.507Z" style="fill:rgb(1,31,68);fill-rule:nonzero;"/>
        <path d="M1280.264,434.507L1280.264,402.246L1275.766,402.246L1275.766,396.65L1288.031,396.65L1288.031,434.507L1280.264,434.507Z" style="fill:rgb(1,31,68);fill-rule:nonzero;"/>
        <path d="M1304.143,417.913L1304.143,402.246L1296.833,402.246L1296.833,396.65L1311.909,396.65L1311.909,417.913L1304.143,417.913Z" style="fill:rgb(1,31,68);fill-rule:nonzero;"/>
        <path d="M1320.922,402.246L1320.922,385.395L1328.654,385.395L1328.654,396.65L1350.372,396.65L1350.372,402.246L1320.922,402.246ZM1353.183,401.126L1338.353,434.507L1330.094,434.507L1347.279,396.65L1353.183,396.65L1353.183,401.126Z" style="fill:rgb(1,31,68);fill-rule:nonzero;"/>
    </g>
    <defs>
        <linearGradient id="_Linear1" x1="0" y1="0" x2="1" y2="0" gradientUnits="userSpaceOnUse" gradientTransform="matrix(503.217407,0,0,340.046598,782.172073,772.444919)"><stop offset="0" style="stop-color:rgb(179,147,104);stop-opacity:1"/><stop offset="0.12" style="stop-color:rgb(175,142,96);stop-opacity:1"/><stop offset="0.2" style="stop-color:rgb(173,139,92);stop-opacity:1"/><stop offset="0.33" style="stop-color:rgb(184,154,113);stop-opacity:1"/><stop offset="0.5" style="stop-color:rgb(207,187,159);stop-opacity:1"/><stop offset="0.66" style="stop-color:rgb(186,157,117);stop-opacity:1"/><stop offset="0.82" style="stop-color:rgb(179,147,103);stop-opacity:1"/><stop offset="1" style="stop-color:rgb(170,135,86);stop-opacity:1"/></linearGradient>
        <linearGradient id="_Linear2" x1="0" y1="0" x2="1" y2="0" gradientUnits="userSpaceOnUse" gradientTransform="matrix(619.523694,0,0,126.381949,723.025722,1120.616708)"><stop offset="0" style="stop-color:rgb(179,147,104);stop-opacity:1"/><stop offset="0.17" style="stop-color:rgb(175,142,96);stop-opacity:1"/><stop offset="0.29" style="stop-color:rgb(173,139,92);stop-opacity:1"/><stop offset="0.41" style="stop-color:rgb(179,148,105);stop-opacity:1"/><stop offset="0.46" style="stop-color:rgb(193,168,132);stop-opacity:1"/><stop offset="0.5" style="stop-color:rgb(207,187,159);stop-opacity:1"/><stop offset="0.54" style="stop-color:rgb(196,171,137);stop-opacity:1"/><stop offset="0.59" style="stop-color:rgb(184,155,114);stop-opacity:1"/><stop offset="0.72" style="stop-color:rgb(179,147,103);stop-opacity:1"/><stop offset="1" style="stop-color:rgb(170,135,86);stop-opacity:1"/></linearGradient>
        <linearGradient id="_Linear3" x1="0" y1="0" x2="1" y2="0" gradientUnits="userSpaceOnUse" gradientTransform="matrix(231.71495,0,0,92.592004,917.515248,1103.721735)"><stop offset="0" style="stop-color:rgb(179,147,104);stop-opacity:1"/><stop offset="0.12" style="stop-color:rgb(175,142,96);stop-opacity:1"/><stop offset="0.2" style="stop-color:rgb(173,139,92);stop-opacity:1"/><stop offset="0.33" style="stop-color:rgb(184,154,113);stop-opacity:1"/><stop offset="0.5" style="stop-color:rgb(207,187,159);stop-opacity:1"/><stop offset="0.66" style="stop-color:rgb(186,157,117);stop-opacity:1"/><stop offset="0.82" style="stop-color:rgb(179,147,103);stop-opacity:1"/><stop offset="1" style="stop-color:rgb(170,135,86);stop-opacity:1"/></linearGradient>
    </defs>
</svg>
